<svg width="41" height="41" viewBox="0 0 41 41" fill="none" xmlns="http://www.w3.org/2000/svg">
<path d="M20.5002 0.711914C9.63343 0.711914 0.822266 9.52308 0.822266 20.3899C0.822266 31.2567 9.63343 40.0678 20.5002 40.0678C31.367 40.0678 40.1782 31.2567 40.1782 20.3899C40.1782 9.52308 31.367 0.711914 20.5002 0.711914ZM26.8297 20.693L17.2367 27.6725C17.1841 27.7103 17.1221 27.7328 17.0575 27.7377C16.9929 27.7425 16.9283 27.7295 16.8706 27.7C16.813 27.6705 16.7646 27.6257 16.7307 27.5704C16.6969 27.5152 16.6789 27.4517 16.6788 27.387V13.4367C16.6786 13.3718 16.6964 13.3081 16.7302 13.2527C16.7639 13.1973 16.8124 13.1523 16.8701 13.1227C16.9279 13.0932 16.9927 13.0802 17.0574 13.0852C17.1221 13.0902 17.1842 13.1131 17.2367 13.1512L26.8297 20.1263C26.875 20.1584 26.912 20.2008 26.9375 20.2501C26.963 20.2994 26.9763 20.3541 26.9763 20.4096C26.9763 20.4652 26.963 20.5199 26.9375 20.5691C26.912 20.6184 26.875 20.6609 26.8297 20.693Z" fill="white"/>
</svg>
